<svg xmlns="http://www.w3.org/2000/svg" xmlns:xlink="http://www.w3.org/1999/xlink" width="30" height="30" viewBox="0 0 30 30">
  <defs>
    <clipPath id="clip-path">
      <rect id="Rectangle_15042" data-name="Rectangle 15042" width="30" height="30" fill="none"/>
    </clipPath>
  </defs>
  <g id="Group_33689" data-name="Group 33689" transform="translate(0 0)">
    <g id="Group_33684" data-name="Group 33684" transform="translate(0 0)">
      <g id="Group_33683" data-name="Group 33683" clip-path="url(#clip-path)">
        <path id="Path_45981" data-name="Path 45981" d="M22.533,10.686A4.37,4.37,0,0,0,21,9.633a5.1,5.1,0,0,0-1.976-.369,5.006,5.006,0,0,0-1.962.374,4.443,4.443,0,0,0-1.219.756v1a3.534,3.534,0,0,1,.231-.286,3.649,3.649,0,0,1,1.294-.9A4.266,4.266,0,0,1,19.026,9.9a4.343,4.343,0,0,1,1.674.312,3.563,3.563,0,0,1,1.29.9,4.127,4.127,0,0,1,.83,1.437,5.8,5.8,0,0,1,.294,1.911,5.774,5.774,0,0,1-.294,1.916,4.13,4.13,0,0,1-.83,1.434,3.549,3.549,0,0,1-1.29.9,4.379,4.379,0,0,1-1.674.308,4.305,4.305,0,0,1-1.656-.308,3.609,3.609,0,0,1-1.294-.9,3.534,3.534,0,0,1-.231-.286v1.011a4.455,4.455,0,0,0,1.219.751,5.426,5.426,0,0,0,3.938,0,4.389,4.389,0,0,0,1.53-1.048,4.7,4.7,0,0,0,.992-1.638,6.141,6.141,0,0,0,.352-2.14,6.137,6.137,0,0,0-.352-2.13,4.783,4.783,0,0,0-.992-1.643" transform="translate(0.925 0.54)" fill="#fff"/>
        <path id="Path_45982" data-name="Path 45982" d="M13.516,9.285A.256.256,0,0,0,13.4,9.4l-4.1,7.071a2.9,2.9,0,0,0-.188.432c-.03-.076-.059-.152-.09-.226a1.982,1.982,0,0,0-.1-.213L4.918,9.4l-.007-.01V10.64l3.852,6.838a.31.31,0,0,0,.287.188h.114a.32.32,0,0,0,.287-.188l4.11-7.114c-.014.133-.021.268-.022.4v8.667h.64V9.264h-.5a.494.494,0,0,0-.162.021" transform="translate(0.287 0.54)" fill="#fff"/>
      </g>
    </g>
    <g id="Group_33686" data-name="Group 33686" transform="translate(0 0)">
      <g id="Group_33685" data-name="Group 33685" clip-path="url(#clip-path)">
        <path id="Path_45983" data-name="Path 45983" d="M1.5,6.749a.75.75,0,1,1-1.5,0v-3A3.748,3.748,0,0,1,3.748,0h3a.75.75,0,0,1,0,1.5h-3A2.251,2.251,0,0,0,1.5,3.75ZM23.25,1.5a.75.75,0,0,1,0-1.5h3A3.748,3.748,0,0,1,30,3.748v3a.75.75,0,1,1-1.5,0v-3A2.251,2.251,0,0,0,26.25,1.5Zm-16.5,27a.75.75,0,0,1,0,1.5h-3A3.749,3.749,0,0,1,0,26.252v-3a.75.75,0,1,1,1.5,0v3A2.252,2.252,0,0,0,3.75,28.5ZM28.5,23.25a.75.75,0,1,1,1.5,0v3A3.749,3.749,0,0,1,26.252,30h-3a.75.75,0,0,1,0-1.5h3a2.252,2.252,0,0,0,2.25-2.25Z" transform="translate(0 -0.001)" fill="#fff"/>
      </g>
    </g>
  </g>
</svg>
